<svg xmlns="http://www.w3.org/2000/svg" xmlns:xlink="http://www.w3.org/1999/xlink" viewBox="0 0 154 27" width="154" height="27" preserveAspectRatio="xMidYMid meet" style="width: 100%; height: 100%; transform: translate3d(0px, 0px, 0px); content-visibility: visible;"><defs><clipPath id="__lottie_element_49"><rect width="154" height="27" x="0" y="0"></rect></clipPath><clipPath id="__lottie_element_73"><path d="M0,0 L596,0 L596,596 L0,596z"></path></clipPath><clipPath id="__lottie_element_74"><path fill="#ffffff" clip-rule="nonzero" d=" M457.46099853515625,60.15700149536133 C457.46099853515625,60.15700149536133 135.85899353027344,63.9739990234375 135.85899353027344,63.9739990234375 C135.85899353027344,63.9739990234375 137.41200256347656,304.7950134277344 137.41200256347656,304.7950134277344 C137.41200256347656,304.7950134277344 459.01300048828125,300.97698974609375 459.01300048828125,300.97698974609375 C459.01300048828125,300.97698974609375 457.46099853515625,60.15700149536133 457.46099853515625,60.15700149536133" fill-opacity="1"></path></clipPath><linearGradient id="__lottie_element_79" spreadMethod="pad" gradientUnits="userSpaceOnUse" x1="152.22500610351562" y1="0" x2="243.4530029296875" y2="0"><stop offset="0%" stop-color="rgb(255,255,255)"></stop><stop offset="50%" stop-color="rgb(255,255,255)"></stop><stop offset="100%" stop-color="rgb(255,255,255)"></stop></linearGradient><g id="__lottie_element_80"><g clip-path="url(#__lottie_element_81)" transform="matrix(1,0,0,1,0,0)" opacity="1" style="display: block;"><g transform="matrix(0,-1,1,0,297.8160095214844,280.3450012207031)" opacity="1" style="display: block;"><g opacity="1" transform="matrix(1,0,0,1,0,0)"><path stroke-linecap="butt" stroke-linejoin="miter" fill-opacity="0" stroke-miterlimit="7.46" stroke="rgb(255,255,255)" stroke-opacity="1" stroke-width="12.685" d=" M0,-132.44200134277344 C73.14600372314453,-132.44200134277344 132.44200134277344,-73.14600372314453 132.44200134277344,0 C132.44200134277344,73.14600372314453 73.14600372314453,132.44200134277344 0,132.44200134277344 C-73.14600372314453,132.44200134277344 -132.44200134277344,73.14600372314453 -132.44200134277344,0 C-132.44200134277344,-73.14600372314453 -73.14600372314453,-132.44200134277344 0,-132.44200134277344z"></path></g></g><g transform="matrix(0,-1,1,0,297.8160095214844,364.2869873046875)" opacity="1" style="display: block;"><g opacity="1" transform="matrix(1,0,0,1,0,0)"><path stroke-linecap="butt" stroke-linejoin="miter" fill-opacity="0" stroke-miterlimit="7.46" stroke="rgb(255,255,255)" stroke-opacity="1" stroke-width="12.856" d=" M0,-141.7689971923828 C78.2969970703125,-141.7689971923828 141.7689971923828,-78.2969970703125 141.7689971923828,0 C141.7689971923828,78.2969970703125 78.2969970703125,141.7689971923828 0,141.7689971923828 C-78.2969970703125,141.7689971923828 -141.7689971923828,78.2969970703125 -141.7689971923828,0 C-141.7689971923828,-78.2969970703125 -78.2969970703125,-141.7689971923828 0,-141.7689971923828z"></path></g></g><g transform="matrix(0,-1,1,0,297.8160095214844,280.3450012207031)" opacity="1" style="display: block;"><g opacity="1" transform="matrix(1,0,0,1,0,0)"><path stroke-linecap="butt" stroke-linejoin="miter" fill-opacity="0" stroke-miterlimit="7.46" stroke="rgb(255,255,255)" stroke-opacity="1" stroke-width="12.685" d=" M-50,-131.32699584960938 C-50,-131.32699584960938 -49.875,129.19900512695312 -49.875,129.19900512695312 C-49.875,129.19900512695312 -50.44200134277344,0.9589999914169312 -50.44200134277344,0.9589999914169312 C-50.44200134277344,0.9589999914169312 -50,-131.32699584960938 -50,-131.32699584960938z"></path></g></g></g></g><clipPath id="__lottie_element_81"><path d="M0,0 L596,0 L596,596 L0,596z"></path></clipPath><filter id="__lottie_element_84" filterUnits="objectBoundingBox" x="0%" y="0%" width="100%" height="100%"><feComponentTransfer in="SourceGraphic"><feFuncA type="table" tableValues="1.0 0.0"></feFuncA></feComponentTransfer></filter><mask id="__lottie_element_80_2" mask-type="alpha"><g filter="url(#__lottie_element_84)"><rect width="596" height="596" x="0" y="0" fill="#ffffff" opacity="0"></rect><use xlink:href="#__lottie_element_80"></use></g></mask></defs><g clip-path="url(#__lottie_element_49)"><g transform="matrix(1,0,0,1,145.78399658203125,12.220000267028809)" opacity="1" style="display: block;"><g opacity="1" transform="matrix(1,0,0,1,0,0)"><path fill="rgb(255,255,255)" fill-opacity="1" d=" M6.922999858856201,9.062000274658203 C6.922999858856201,9.062000274658203 6.922999858856201,8.70199966430664 6.922999858856201,8.70199966430664 C6,8.522000312805176 5.230999946594238,8.291000366210938 5.230999946594238,7.1620001792907715 C5.230999946594238,7.1620001792907715 5.230999946594238,-0.25699999928474426 5.230999946594238,-0.25699999928474426 C5.230999946594238,-2.746999979019165 3.9230000972747803,-4.184000015258789 1.6670000553131104,-4.184000015258789 C-0.12800000607967377,-4.184000015258789 -1.4869999885559082,-3.1059999465942383 -2.8459999561309814,-1.309000015258789 C-2.8459999561309814,-1.309000015258789 -2.8459999561309814,-9.062000274658203 -2.8459999561309814,-9.062000274658203 C-2.8459999561309814,-9.062000274658203 -3.2049999237060547,-9.062000274658203 -3.2049999237060547,-9.062000274658203 C-3.2049999237060547,-9.062000274658203 -6.922999858856201,-8.008999824523926 -6.922999858856201,-8.008999824523926 C-6.922999858856201,-8.008999824523926 -6.922999858856201,-7.650000095367432 -6.922999858856201,-7.650000095367432 C-6.922999858856201,-7.650000095367432 -6.307000160217285,-7.650000095367432 -6.307000160217285,-7.650000095367432 C-5.383999824523926,-7.598999977111816 -4.973999977111816,-7.188000202178955 -4.973999977111816,-6.315000057220459 C-4.973999977111816,-6.315000057220459 -4.973999977111816,7.1620001792907715 -4.973999977111816,7.1620001792907715 C-4.973999977111816,8.291000366210938 -5.743000030517578,8.522000312805176 -6.691999912261963,8.70199966430664 C-6.691999912261963,8.70199966430664 -6.691999912261963,9.062000274658203 -6.691999912261963,9.062000274658203 C-6.691999912261963,9.062000274658203 -1.1540000438690186,9.062000274658203 -1.1540000438690186,9.062000274658203 C-1.1540000438690186,9.062000274658203 -1.1540000438690186,8.70199966430664 -1.1540000438690186,8.70199966430664 C-2.0769999027252197,8.522000312805176 -2.8459999561309814,8.291000366210938 -2.8459999561309814,7.1620001792907715 C-2.8459999561309814,7.1620001792907715 -2.8459999561309814,-0.6669999957084656 -2.8459999561309814,-0.6669999957084656 C-1.5640000104904175,-2.130000114440918 -0.5120000243186951,-2.694999933242798 0.7440000176429749,-2.694999933242798 C2.2049999237060547,-2.694999933242798 3.1019999980926514,-1.7200000286102295 3.1019999980926514,-0.12800000607967377 C3.1019999980926514,-0.12800000607967377 3.1019999980926514,7.1620001792907715 3.1019999980926514,7.1620001792907715 C3.1019999980926514,8.291000366210938 2.3329999446868896,8.522000312805176 1.409999966621399,8.70199966430664 C1.409999966621399,8.70199966430664 1.409999966621399,9.062000274658203 1.409999966621399,9.062000274658203 C1.409999966621399,9.062000274658203 6.922999858856201,9.062000274658203 6.922999858856201,9.062000274658203z"></path></g></g><g transform="matrix(1,0,0,1,133.2760009765625,14.845000267028809)" opacity="1" style="display: block;"><g opacity="1" transform="matrix(1,0,0,1,0,0)"><path fill="rgb(255,255,255)" fill-opacity="1" d=" M0.375,6.785999774932861 C-3.187000036239624,6.785999774932861 -5.534999847412109,3.8929998874664307 -5.534999847412109,0.15399999916553497 C-5.534999847412109,0.15399999916553497 -5.534999847412109,0.15399999916553497 -5.534999847412109,0.15399999916553497 C-5.534999847412109,-3.5850000381469727 -3.187000036239624,-6.785999774932861 0.6320000290870667,-6.785999774932861 C3.2639999389648438,-6.785999774932861 4.915999889373779,-5.0960001945495605 5.172999858856201,-3.687999963760376 C5.172999858856201,-3.687999963760376 5.461999893188477,-2.634999990463257 4.560999870300293,-2.359999895095825 C4.006999969482422,-2.190999984741211 3.311000108718872,-2.4670000076293945 3.134999990463257,-3.2260000705718994 C2.8429999351501465,-4.478000164031982 2.0510001182556152,-6.068999767303467 0.296999990940094,-6.068999767303467 C-1.871000051498413,-6.068999767303467 -3.3420000076293945,-3.865000009536743 -3.3420000076293945,-0.9480000138282776 C-3.3420000076293945,2.5339999198913574 -1.5609999895095825,4.940999984741211 1.3040000200271606,4.940999984741211 C2.8269999027252197,4.940999984741211 4.297999858856201,4.146999835968018 5.224999904632568,2.509000062942505 C5.224999904632568,2.509000062942505 5.534999847412109,2.5859999656677246 5.534999847412109,2.5859999656677246 C4.863999843597412,5.146999835968018 3.006999969482422,6.783999919891357 0.375,6.783999919891357 C0.375,6.783999919891357 0.375,6.785999774932861 0.375,6.785999774932861z"></path></g></g><g transform="matrix(1,0,0,1,121.74099731445312,17.522998809814453)" opacity="1" style="display: block;"><g opacity="1" transform="matrix(1,0,0,1,0,0)"><path fill="rgb(255,255,255)" fill-opacity="1" d=" M7.053999900817871,-9.104000091552734 C7.053999900817871,-9.104000091552734 3.2869999408721924,-9.104000091552734 3.2869999408721924,-9.104000091552734 C3.2869999408721924,-9.104000091552734 3.2860000133514404,-9.102999687194824 3.2860000133514404,-9.102999687194824 C3.2860000133514404,-9.102999687194824 3.2860000133514404,-8.739999771118164 3.2860000133514404,-8.739999771118164 C4.421000003814697,-8.6899995803833 4.913000106811523,-8.20300006866455 4.551000118255615,-7.331999778747559 C4.551000118255615,-7.331999778747559 1.093999981880188,0.9639999866485596 1.093999981880188,0.9639999866485596 C1.093999981880188,0.9639999866485596 -2.2860000133514404,-7.359000205993652 -2.2860000133514404,-7.359000205993652 C-2.6480000019073486,-8.204000473022461 -2.1059999465942383,-8.6899995803833 -0.8930000066757202,-8.741999626159668 C-0.8930000066757202,-8.741999626159668 -0.8930000066757202,-9.10099983215332 -0.8930000066757202,-9.10099983215332 C-0.8930000066757202,-9.10099983215332 -6.361999988555908,-9.10099983215332 -6.361999988555908,-9.10099983215332 C-6.361999988555908,-9.10099983215332 -6.361999988555908,-8.741999626159668 -6.361999988555908,-8.741999626159668 C-5.5370001792907715,-8.692000389099121 -5.0980000495910645,-8.357999801635742 -4.633999824523926,-7.334000110626221 C-4.633999824523926,-7.334000110626221 -0.014999999664723873,3.6510000228881836 -0.014999999664723873,3.6510000228881836 C-0.014999999664723873,3.6510000228881836 -0.45399999618530273,4.7270002365112305 -0.45399999618530273,4.7270002365112305 C-1.2339999675750732,6.421999931335449 -2.940000057220459,8.086000442504883 -5.099999904632568,7.118000030517578 C-5.910999774932861,6.765999794006348 -6.730000019073486,6.735000133514404 -6.98799991607666,7.323999881744385 C-7.261000156402588,7.946000099182129 -6.748000144958496,9.286999702453613 -4.176000118255615,9.083000183105469 C-2.497999906539917,8.949999809265137 -0.9440000057220459,7.669000148773193 0.24199999868869781,4.853000164031982 C0.24199999868869781,4.853000164031982 5.324999809265137,-7.336999893188477 5.324999809265137,-7.336999893188477 C5.76200008392334,-8.361000061035156 6.202000141143799,-8.692999839782715 7.053999900817871,-8.744999885559082 C7.053999900817871,-8.744999885559082 7.053999900817871,-9.104000091552734 7.053999900817871,-9.104000091552734z"></path></g></g><g transform="matrix(1,0,0,1,110.4990005493164,14.831999778747559)" opacity="1" style="display: block;"><g opacity="1" transform="matrix(1,0,0,1,0,0)"><path fill="rgb(255,255,255)" fill-opacity="1" d=" M-4.873000144958496,4.609000205993652 C-4.085999965667725,6.133999824523926 -2.1470000743865967,6.785999774932861 0.07500000298023224,6.783999919891357 C0.07500000298023224,6.783999919891357 0.07599999755620956,6.783999919891357 0.07599999755620956,6.783999919891357 C0.07599999755620956,6.783999919891357 0.07599999755620956,6.784999847412109 0.07599999755620956,6.784999847412109 C0.07599999755620956,6.784999847412109 0.07699999958276749,6.7870001792907715 0.07699999958276749,6.7870001792907715 C2.8399999141693115,6.7870001792907715 5.040999889373779,5.1479997634887695 4.988999843597412,2.7669999599456787 C4.933000087738037,0.20800000429153442 2.7090001106262207,-0.550000011920929 0.675000011920929,-1.2430000305175781 C-1.055999994277954,-1.8329999446868896 -2.6489999294281006,-2.375999927520752 -2.6489999294281006,-3.941999912261963 C-2.6489999294281006,-5.197999954223633 -1.7610000371932983,-6.067999839782715 -0.21299999952316284,-6.067999839782715 C1.6690000295639038,-6.067999839782715 2.384999990463257,-4.90500020980835 3.072999954223633,-3.430999994277954 C3.2929999828338623,-2.9590001106262207 3.88100004196167,-2.694999933242798 4.36299991607666,-2.937000036239624 C4.8420000076293945,-3.177999973297119 4.840000152587891,-3.882999897003174 4.73199987411499,-4.251999855041504 C4.260000228881836,-5.855000019073486 2.2279999256134033,-6.7870001792907715 0.0860000029206276,-6.7870001792907715 C-2.6489999294281006,-6.7870001792907715 -4.454999923706055,-5.2789998054504395 -4.429999828338623,-3.075000047683716 C-4.388999938964844,-0.6830000281333923 -2.325000047683716,0.020999999716877937 -0.3529999852180481,0.6940000057220459 C1.4539999961853027,1.309999942779541 3.183000087738037,1.8990000486373901 3.2079999446868896,3.7360000610351562 C3.2079999446868896,5.14300012588501 1.8799999952316284,6.065999984741211 0.2540000081062317,6.065999984741211 C-1.0230000019073486,6.065999984741211 -2.4549999237060547,5.293000221252441 -3.1470000743865967,4.056000232696533 C-3.443000078201294,3.5269999504089355 -3.994999885559082,3.0739998817443848 -4.541999816894531,3.3350000381469727 C-4.99399995803833,3.549999952316284 -5.1020002365112305,4.164999961853027 -4.873000144958496,4.609000205993652z"></path></g></g><g transform="matrix(1,0,0,1,87.2750015258789,12.699999809265137)" opacity="1" style="display: block;"><g opacity="1" transform="matrix(1,0,0,1,0,0)"><path fill="rgb(255,255,255)" fill-opacity="1" d=" M11.333000183105469,-8.555000305175781 C11.333000183105469,-8.555000305175781 11.331000328063965,-8.557000160217285 11.331000328063965,-8.557000160217285 C11.331000328063965,-8.557000160217285 11.331000328063965,-8.557000160217285 11.331000328063965,-8.557000160217285 C11.331000328063965,-8.557000160217285 4.053999900817871,-8.557000160217285 4.053999900817871,-8.557000160217285 C4.053999900817871,-8.557000160217285 4.053999900817871,-8.197999954223633 4.053999900817871,-8.197999954223633 C5.627999782562256,-8.095000267028809 6.375999927520752,-7.7870001792907715 6.375999927520752,-6.302000045776367 C6.375999927520752,-6.302000045776367 6.375999927520752,6.271999835968018 6.375999927520752,6.271999835968018 C6.375999927520752,7.545000076293945 5.822999954223633,7.956999778747559 4.73799991607666,8.119000434875488 C4.202000141143799,8.199000358581543 3.5329999923706055,8.168999671936035 3.0309998989105225,7.966000080108643 C2.5260000228881836,7.761000156402588 2.183000087738037,7.4070000648498535 2.183000087738037,6.656000137329102 C2.183000087738037,6.656000137329102 2.184000015258789,6.6579999923706055 2.184000015258789,6.6579999923706055 C2.184000015258789,6.6579999923706055 2.184000015258789,-0.7419999837875366 2.184000015258789,-0.7419999837875366 C2.184000015258789,-3.2260000705718994 0.8679999709129333,-4.659999847412109 -1.4019999504089355,-4.659999847412109 C-3.259999990463257,-4.659999847412109 -4.6539998054504395,-3.509000062942505 -6.072000026702881,-1.6139999628067017 C-6.354000091552734,-3.559999942779541 -7.619999885559082,-4.659999847412109 -9.607999801635742,-4.659999847412109 C-11.336000442504883,-4.659999847412109 -12.652000427246094,-3.687999963760376 -13.968000411987305,-2.0230000019073486 C-13.968000411987305,-2.0230000019073486 -13.968000411987305,-4.685999870300293 -13.968000411987305,-4.685999870300293 C-13.968000411987305,-4.685999870300293 -14.329999923706055,-4.685999870300293 -14.329999923706055,-4.685999870300293 C-14.329999923706055,-4.685999870300293 -18.070999145507812,-3.634999990463257 -18.070999145507812,-3.634999990463257 C-18.070999145507812,-3.634999990463257 -18.070999145507812,-3.2760000228881836 -18.070999145507812,-3.2760000228881836 C-18.070999145507812,-3.2760000228881836 -17.45199966430664,-3.2760000228881836 -17.45199966430664,-3.2760000228881836 C-16.523000717163086,-3.1989998817443848 -16.111000061035156,-2.7880001068115234 -16.111000061035156,-1.9170000553131104 C-16.111000061035156,-1.9170000553131104 -16.111000061035156,6.660999774932861 -16.111000061035156,6.660999774932861 C-16.111000061035156,7.788000106811523 -16.884000778198242,8.017999649047852 -17.839000701904297,8.197999954223633 C-17.839000701904297,8.197999954223633 -17.839000701904297,8.557000160217285 -17.839000701904297,8.557000160217285 C-17.839000701904297,8.557000160217285 -12.265000343322754,8.557000160217285 -12.265000343322754,8.557000160217285 C-12.265000343322754,8.557000160217285 -12.265000343322754,8.197999954223633 -12.265000343322754,8.197999954223633 C-13.194000244140625,8.019000053405762 -13.968000411987305,7.789000034332275 -13.968000411987305,6.660999774932861 C-13.968000411987305,6.660999774932861 -13.968000411987305,-1.3539999723434448 -13.968000411987305,-1.3539999723434448 C-12.755999565124512,-2.6600000858306885 -11.74899959564209,-3.1730000972747803 -10.53600025177002,-3.1730000972747803 C-9.067000389099121,-3.1730000972747803 -8.163000106811523,-2.2019999027252197 -8.163000106811523,-0.6129999756813049 C-8.163000106811523,-0.6129999756813049 -8.163000106811523,6.658999919891357 -8.163000106811523,6.658999919891357 C-8.163000106811523,7.785999774932861 -8.937000274658203,8.017000198364258 -9.866000175476074,8.196000099182129 C-9.866000175476074,8.196000099182129 -9.866000175476074,8.555000305175781 -9.866000175476074,8.555000305175781 C-9.866000175476074,8.555000305175781 -4.317999839782715,8.555000305175781 -4.317999839782715,8.555000305175781 C-4.317999839782715,8.555000305175781 -4.317999839782715,8.196000099182129 -4.317999839782715,8.196000099182129 C-5.247000217437744,8.017000198364258 -6.021999835968018,7.7870001792907715 -6.021999835968018,6.658999919891357 C-6.021999835968018,6.658999919891357 -6.021999835968018,-1.0490000247955322 -6.021999835968018,-1.0490000247955322 C-4.706999778747559,-2.5859999656677246 -3.6489999294281006,-3.174999952316284 -2.3320000171661377,-3.174999952316284 C-0.8610000014305115,-3.174999952316284 0.0430000014603138,-2.203000068664551 0.0430000014603138,-0.6140000224113464 C0.0430000014603138,-0.6140000224113464 0.0430000014603138,6.6579999923706055 0.0430000014603138,6.6579999923706055 C0.0430000014603138,7.784999847412109 -0.7310000061988831,8.015000343322754 -1.659999966621399,8.194000244140625 C-1.659999966621399,8.194000244140625 -1.659999966621399,8.553999900817871 -1.659999966621399,8.553999900817871 C-1.659999966621399,8.553999900817871 11.02299976348877,8.553999900817871 11.02299976348877,8.553999900817871 C11.02299976348877,8.553999900817871 11.02299976348877,8.194000244140625 11.02299976348877,8.194000244140625 C9.47700023651123,8.092000007629395 8.727999687194824,7.809999942779541 8.727999687194824,6.27400016784668 C8.727999687194824,6.27400016784668 8.729000091552734,-7.835999965667725 8.729000091552734,-7.835999965667725 C8.729000091552734,-7.835999965667725 11.050999641418457,-7.835999965667725 11.050999641418457,-7.835999965667725 C13.991000175476074,-7.835999965667725 15.534000396728516,-6.14300012588501 15.541000366210938,-3.763000011444092 C15.54800033569336,-1.3830000162124634 14.095000267028809,0.6019999980926514 9.656000137329102,0.6019999980926514 C9.656000137329102,0.6019999980926514 9.656000137329102,1 9.656000137329102,1 C9.656000137329102,1 11.335000038146973,1 11.335000038146973,1 C15.336000442504883,1 18.070999145507812,-0.4860000014305115 18.070999145507812,-3.763000011444092 C18.070999145507812,-7.039999961853027 15.333999633789062,-8.552000045776367 11.335000038146973,-8.552000045776367 C11.335000038146973,-8.552000045776367 11.333000183105469,-8.555000305175781 11.333000183105469,-8.555000305175781z"></path></g></g><g transform="matrix(1,0,0,1,62.78199768066406,14.83899974822998)" opacity="1" style="display: block;"><g opacity="1" transform="matrix(1,0,0,1,0,0)"><path fill="rgb(255,255,255)" fill-opacity="1" d=" M-0.29499998688697815,-6.084000110626221 C2.628000020980835,-6.084000110626221 3.75600004196167,-2.13100004196167 3.75600004196167,0.6930000185966492 C3.75600004196167,3.8499999046325684 2.447999954223633,6.084000110626221 0.3199999928474426,6.084000110626221 C-2.628999948501587,6.084000110626221 -3.7309999465942383,2.13100004196167 -3.7309999465942383,-0.7440000176429749 C-3.7309999465942383,-3.875999927520752 -2.3970000743865967,-6.084000110626221 -0.29499998688697815,-6.084000110626221z M0.11500000208616257,-6.802999973297119 C-3.5,-6.802999973297119 -6.013000011444092,-3.9019999504089355 -6.013000011444092,0.28200000524520874 C-6.013000011444092,4.132999897003174 -3.75600004196167,6.802999973297119 -0.11500000208616257,6.802999973297119 C3.5260000228881836,6.802999973297119 6.013000011444092,3.927000045776367 6.013000011444092,-0.25699999928474426 C6.013000011444092,-4.132999897003174 3.7300000190734863,-6.802999973297119 0.11500000208616257,-6.802999973297119z"></path></g></g><g transform="matrix(1,0,0,1,48.196998596191406,12.710000038146973)" opacity="1" style="display: block;"><g opacity="1" transform="matrix(1,0,0,1,0,0)"><path fill="rgb(255,255,255)" fill-opacity="1" d=" M-7.546000003814697,0.4090000092983246 C-7.546000003814697,5.230999946594238 -4.160999774932861,8.949000358581543 0.5690000057220459,8.949000358581543 C0.5690000057220459,8.949000358581543 0.5680000185966492,8.947999954223633 0.5680000185966492,8.947999954223633 C0.5680000185966492,8.947999954223633 0.5669999718666077,8.949999809265137 0.5669999718666077,8.949999809265137 C0.5669999718666077,8.949999809265137 0.5690000057220459,8.95199966430664 0.5690000057220459,8.95199966430664 C4.057000160217285,8.95199966430664 6.668000221252441,6.796000003814697 7.546000003814697,3.309000015258789 C7.546000003814697,3.309000015258789 7.125999927520752,3.2320001125335693 7.125999927520752,3.2320001125335693 C6.324999809265137,5.540999889373779 4.316999912261963,7.0279998779296875 1.5779999494552612,7.0279998779296875 C-2.3239998817443848,7.0279998779296875 -5.064000129699707,3.872999906539917 -5.064000129699707,-0.6399999856948853 C-5.064000129699707,-5.1529998779296875 -2.765000104904175,-8.256999969482422 0.5690000057220459,-8.256999969482422 C2.6630001068115234,-8.256999969482422 4.316999912261963,-6.769000053405762 4.861999988555908,-4.460999965667725 C4.861999988555908,-4.460999965667725 4.861999988555908,-4.454999923706055 4.861999988555908,-4.454999923706055 C5.002999782562256,-3.8450000286102295 5.599999904632568,-3.450000047683716 6.2220001220703125,-3.552999973297119 C6.923999786376953,-3.6689999103546143 7.36899995803833,-4.367000102996826 7.171999931335449,-5.046999931335449 C7.171999931335449,-5.046999931335449 7.132999897003174,-5.181000232696533 7.132999897003174,-5.181000232696533 C6.435999870300293,-7.514999866485596 4.031000137329102,-8.95199966430664 0.8790000081062317,-8.95199966430664 C-4.289999961853027,-8.95199966430664 -7.546000003814697,-5.0289998054504395 -7.546000003814697,0.4090000092983246z"></path></g></g><g clip-path="url(#__lottie_element_73)" transform="matrix(0.0933300033211708,0,0,0.0933300033211708,-13.788345336914062,-6.388341903686523)" opacity="1" style="display: block;"><g clip-path="url(#__lottie_element_74)"><g mask="url(#__lottie_element_80_2)" style="display: block;"><g transform="matrix(0,-1,1,0,297.8160095214844,222.14500427246094)" opacity="1"><g opacity="1" transform="matrix(1,0,0,1,0,0)"><path fill="url(#__lottie_element_79)" fill-opacity="1" d=" M0,-149.23049926757812 C82.36031341552734,-149.23049926757812 149.23049926757812,-82.36031341552734 149.23049926757812,0 C149.23049926757812,82.36031341552734 82.36031341552734,149.23049926757812 0,149.23049926757812 C-82.36031341552734,149.23049926757812 -149.23049926757812,82.36031341552734 -149.23049926757812,0 C-149.23049926757812,-82.36031341552734 -82.36031341552734,-149.23049926757812 0,-149.23049926757812z"></path></g></g></g></g></g></g></svg>